<svg xmlns="http://www.w3.org/2000/svg" viewBox="0 0 512 512" style="height: 512px; width: 512px;"><defs><radialGradient id="lorc-strafe-gradient-1"><stop offset="0%" stop-color="#fc88fc" stop-opacity="1"></stop><stop offset="100%" stop-color="#c9c9c9" stop-opacity="1"></stop></radialGradient><radialGradient id="lorc-strafe-gradient-2"><stop offset="0%" stop-color="#c71eeb" stop-opacity="1"></stop><stop offset="100%" stop-color="#4a4a4a" stop-opacity="1"></stop></radialGradient><radialGradient id="lorc-strafe-gradient-4"><stop offset="0%" stop-color="#ffffff" stop-opacity="1"></stop><stop offset="100%" stop-color="#aadfff" stop-opacity="1"></stop></radialGradient></defs><g class="" transform="translate(0,-111)" style=""><g transform="translate(0, 0) scale(1, 1) rotate(-135, 256, 256) skewX(0) skewY(0)"><path d="M196.5 18.95C176.4 19.05 155.6 23.25 135.2 31.25C141.2 49.55 158.2 100.4 158.2 100.4L140.5 106.4C140.5 106.4 124.8 59.35 118.1 38.95C100.2 48.25 82.76 60.65 67.16 76.25C51.16 92.35 38.26 110.4 28.86 129.1C50.66 136.3 95.46 151.4 95.46 151.4L89.46 169.2C89.46 169.2 41.46 153 21.16 146.3C7.158 182.5 5.258 220.3 16.16 252.2C28.86 239.5 48.86 232.7 72.56 231.5L138.4 297.4L151.6 284.2L99.96 232.4C149.2 238 207.4 263.3 250.6 306.5L296.5 260.7C254.1 218.3 229.7 159.4 224 109.8L275 160.8L288.2 147.6L222.9 82.25C223.8 58.05 230.2 38.05 242.1 26.15C227.8 21.25 212.4 18.85 196.5 18.95Z" class="selected" fill="url(#lorc-strafe-gradient-2)" stroke="#000000" stroke-opacity="1" stroke-width="6"></path><path d="M318.3 154.9C315.6 154.9 312.9 155.2 310.3 155.8C313 157.6 315.7 159.7 318.1 162.1C330.2 174.2 334 190.1 326.5 197.6C319 205.1 303 201.3 290.9 189.2C288.5 186.8 286.4 184.2 284.7 181.5C284.1 184.1 283.8 186.7 283.8 189.4C283.8 208.4 299.2 223.8 318.3 223.8C323.9 223.8 329.2 222.5 333.8 220.1L350.1 236.4L363.3 223.2L347.6 207.5C350.9 202.2 352.8 196 352.8 189.4C352.8 170.3 337.4 154.9 318.3 154.9Z" class="" fill="#fcfcfc" fill-opacity="0"></path><path d="M222.9 196.9C289.1 263.1 254.9 297.4 188.7 231.2Z" class="" fill="url(#lorc-strafe-gradient-4)" stroke="#000000" stroke-opacity="1" stroke-width="6"></path><path d="M376.5 236.4L363.3 249.6L394 280.3L407.2 267Z" class="" fill="#ffffff" fill-opacity="0"></path><path d="M420.4 280.3L407.2 293.5L436.4 322.7L449.6 309.5Z" class="" fill="#ffffff" fill-opacity="0"></path><path d="M180.4 291.8C177.7 291.8 175 292.1 172.5 292.7C175.1 294.4 177.7 296.6 180.2 299C192.3 311.1 196 327 188.5 334.5C181.1 341.9 165.2 338.2 153.1 326.1C150.7 323.6 148.6 321 146.8 318.4C146.2 320.9 145.9 323.5 145.9 326.2C145.9 345.3 161.4 360.7 180.4 360.7C187 360.7 193.2 358.8 198.4 355.6L214.6 371.8L227.8 358.6L211.1 341.9C213.5 337.2 214.9 331.9 214.9 326.2C214.9 307.2 199.4 291.8 180.4 291.8Z" class="" fill="#ffffff" fill-opacity="0"></path><path d="M462.9 322.7L449.6 336L484.1 370.4L484.1 344Z" class="" fill="#ffffff" fill-opacity="0"></path><path d="M241 371.8L227.8 385L258.5 415.6L271.7 402.5Z" class="" fill="#ffffff" fill-opacity="0"></path><path d="M284.9 415.6L271.7 428.9L301 458.1L314.1 444.9Z" class="" fill="#ffffff" fill-opacity="0"></path><path d="M327.5 458.1L314.2 471.3L336 493.1L362.4 493.1Z" class="" fill="#ffffff" fill-opacity="0"></path></g></g></svg>